<svg width="100" height="100" viewBox="0 0 100 100" fill="none" xmlns="http://www.w3.org/2000/svg">
<g clip-path="url(#clip0_9971_30355)">
<circle cx="50" cy="50" r="50" fill="white"/>
<path d="M35.5054 58.7877C34.4016 58.7877 33.4018 58.5957 32.506 58.2118C31.6102 57.8119 30.8903 57.204 30.3465 56.3882C29.8026 55.5723 29.5146 54.5486 29.4826 53.3168H32.506C32.522 54.1326 32.786 54.8205 33.2979 55.3804C33.8257 55.9243 34.5616 56.1962 35.5054 56.1962C36.4012 56.1962 37.0891 55.9483 37.569 55.4524C38.0489 54.9565 38.2888 54.3326 38.2888 53.5808C38.2888 52.7009 37.9689 52.0371 37.329 51.5892C36.7052 51.1253 35.8973 50.8933 34.9055 50.8933H33.6578V48.3738H34.9295C35.7454 48.3738 36.4252 48.1819 36.9691 47.7979C37.513 47.414 37.7849 46.8461 37.7849 46.0943C37.7849 45.4704 37.577 44.9745 37.1611 44.6066C36.7611 44.2227 36.2013 44.0307 35.4814 44.0307C34.6976 44.0307 34.0817 44.2627 33.6338 44.7266C33.2019 45.1905 32.9619 45.7584 32.9139 46.4302H29.9145C29.9785 44.8785 30.5144 43.6548 31.5222 42.759C32.546 41.8632 33.8657 41.4153 35.4814 41.4153C36.6332 41.4153 37.601 41.6232 38.3848 42.0391C39.1846 42.439 39.7845 42.9749 40.1844 43.6468C40.6004 44.3187 40.8083 45.0625 40.8083 45.8783C40.8083 46.8221 40.5444 47.622 40.0165 48.2778C39.5046 48.9177 38.8647 49.3496 38.0969 49.5736C39.0407 49.7655 39.8085 50.2294 40.4004 50.9653C40.9923 51.6851 41.2882 52.597 41.2882 53.7007C41.2882 54.6285 41.0643 55.4764 40.6164 56.2442C40.1684 57.0121 39.5126 57.6279 38.6488 58.0918C37.8009 58.5557 36.7531 58.7877 35.5054 58.7877Z" fill="#0C122A"/>
<path d="M49.2954 58.7877C48.0317 58.7877 46.9679 58.5557 46.1041 58.0918C45.2403 57.6279 44.5444 57.0041 44.0165 56.2202C43.4886 55.4364 43.1047 54.5646 42.8648 53.6048C42.6408 52.6449 42.5288 51.6611 42.5288 50.6534C42.5288 48.7817 42.7928 47.1581 43.3207 45.7824C43.8486 44.3906 44.6084 43.3189 45.6002 42.567C46.592 41.7992 47.7918 41.4153 49.1995 41.4153C50.3512 41.4153 51.327 41.6472 52.1269 42.1111C52.9427 42.559 53.5746 43.1509 54.0225 43.8867C54.4704 44.6226 54.7343 45.4144 54.8143 46.2623H51.9589C51.8149 45.5264 51.503 44.9585 51.0231 44.5586C50.5432 44.1587 49.9273 43.9587 49.1755 43.9587C48.1037 43.9587 47.2399 44.4546 46.584 45.4464C45.9281 46.4222 45.5762 47.9179 45.5282 49.9335C45.9121 49.2776 46.488 48.7338 47.2559 48.3018C48.0237 47.8699 48.8795 47.654 49.8233 47.654C50.7511 47.654 51.623 47.8779 52.4388 48.3258C53.2546 48.7737 53.9105 49.4056 54.4064 50.2214C54.9183 51.0373 55.1742 51.9971 55.1742 53.1009C55.1742 54.1086 54.9263 55.0445 54.4304 55.9083C53.9505 56.7721 53.2626 57.468 52.3668 57.9959C51.487 58.5237 50.4632 58.7877 49.2954 58.7877ZM49.1275 56.1482C50.0233 56.1482 50.7591 55.8763 51.335 55.3324C51.9269 54.7725 52.2228 54.0687 52.2228 53.2208C52.2228 52.325 51.9269 51.6052 51.335 51.0613C50.7431 50.5174 49.9913 50.2454 49.0795 50.2454C48.4876 50.2454 47.9517 50.3814 47.4718 50.6534C47.0079 50.9093 46.64 51.2612 46.368 51.7091C46.0961 52.1411 45.9601 52.629 45.9601 53.1728C45.9601 54.0367 46.2561 54.7485 46.8479 55.3084C47.4558 55.8683 48.2157 56.1482 49.1275 56.1482Z" fill="#0C122A"/>
<path d="M62.4269 58.7877C61.1952 58.7877 60.1314 58.5717 59.2356 58.1398C58.3558 57.7079 57.6599 57.116 57.148 56.3642C56.6521 55.5963 56.3642 54.7325 56.2842 53.7727H59.2836C59.4276 54.4606 59.7795 55.0365 60.3394 55.5004C60.8993 55.9483 61.5951 56.1722 62.4269 56.1722C63.3228 56.1722 64.0506 55.8443 64.6105 55.1884C65.1864 54.5326 65.4743 53.7167 65.4743 52.7409C65.4743 51.7331 65.1864 50.9333 64.6105 50.3414C64.0506 49.7495 63.3388 49.4536 62.4749 49.4536C61.7551 49.4536 61.1312 49.6296 60.6033 49.9815C60.0754 50.3334 59.6995 50.7733 59.4755 51.3012H56.5242L57.9639 41.7032H67.2739V44.3906H60.2674L59.4995 48.2778C59.8515 47.8939 60.3314 47.582 60.9392 47.342C61.5471 47.0861 62.227 46.9581 62.9788 46.9581C64.1786 46.9581 65.1784 47.2301 65.9782 47.7739C66.778 48.3018 67.3859 49.0057 67.8018 49.8855C68.2178 50.7493 68.4257 51.6931 68.4257 52.7169C68.4257 53.8847 68.1698 54.9245 67.6579 55.8363C67.162 56.7481 66.4581 57.468 65.5463 57.9959C64.6505 58.5237 63.6107 58.7877 62.4269 58.7877Z" fill="#0C122A"/>
<path d="M25.1671 78.4436L19.8943 62.2476C19.8205 62.0031 19.8151 61.7428 19.8786 61.4953C19.942 61.2479 20.072 61.023 20.254 60.8456C20.436 60.6681 20.663 60.545 20.9099 60.4898C21.1568 60.4346 21.414 60.4495 21.6531 60.5329L37.6625 66.0238C37.9604 66.1245 38.215 66.3255 38.3838 66.5932C38.5526 66.8608 38.6255 67.179 38.5901 67.4944C38.5548 67.8098 38.4134 68.1034 38.1896 68.3261C37.9658 68.5489 37.6732 68.6872 37.3606 68.718L29.7592 69.4872C29.4502 69.5169 29.0873 69.6638 28.8639 69.8816C28.6405 70.0994 28.3376 71.1396 28.2971 71.4506L27.8324 78.2449C27.7814 78.552 27.63 78.8329 27.4024 79.0427C27.1748 79.2524 26.8841 79.3789 26.5769 79.4018C26.2697 79.4247 25.9638 79.3427 25.7082 79.169C25.4526 78.9952 25.2621 78.7398 25.1671 78.4436Z" fill="#6948EB"/>
<path d="M77.0809 44.018C78.3038 43.7465 79.5219 44.5233 79.6951 45.7639C80.5283 51.7319 79.647 57.8366 77.1333 63.3287C74.3041 69.5099 69.5634 74.5735 63.639 77.7422C57.7146 80.9109 50.9339 82.0095 44.338 80.8693C38.4699 79.8549 33.0366 77.1185 28.6917 73.0184C27.7909 72.1684 27.8441 70.7465 28.7405 69.8919C29.6618 69.0136 31.1186 69.0711 32.0582 69.9299C35.71 73.2678 40.2253 75.4979 45.0913 76.3391C50.7144 77.3111 56.4949 76.3745 61.5455 73.6732C66.5961 70.9719 70.6376 66.6551 73.0496 61.3855C75.151 56.7943 75.9142 51.7009 75.2733 46.7075C75.1156 45.4792 75.872 44.2865 77.0809 44.018Z" fill="#6B4BEB"/>
<path d="M77.7467 50.1538C78.9912 50.1538 80.0083 49.1436 79.9201 47.9023C79.4666 41.5184 77.0927 35.4111 73.0954 30.4287C68.6303 24.8631 62.4145 21.0436 55.5023 19.6183C48.59 18.1929 41.407 19.2493 35.1717 22.6083C29.5846 25.6181 25.0666 30.3104 22.2161 36.0198C21.6641 37.1255 22.204 38.4396 23.3393 38.9278C24.4971 39.4257 25.8301 38.8748 26.4095 37.7555C28.8476 33.046 32.6282 29.1753 37.2769 26.671C42.5926 23.8074 48.7162 22.9068 54.6089 24.1219C60.5017 25.3371 65.8007 28.5932 69.6073 33.3379C72.9458 37.4992 74.956 42.5809 75.3998 47.9031C75.5032 49.1432 76.5023 50.1538 77.7467 50.1538Z" fill="url(#paint0_linear_9971_30355)"/>
</g>
<defs>
<linearGradient id="paint0_linear_9971_30355" x1="73.4098" y1="36.9733" x2="26.6791" y2="43.5636" gradientUnits="userSpaceOnUse">
<stop stop-color="#6B4BEB"/>
<stop offset="0.300236" stop-color="#6B4BEB" stop-opacity="0.668642"/>
<stop offset="0.550052" stop-color="#6B4BEB" stop-opacity="0.449948"/>
<stop offset="1" stop-color="#6B4BEB" stop-opacity="0"/>
</linearGradient>
<clipPath id="clip0_9971_30355">
<rect width="100" height="100" fill="white"/>
</clipPath>
</defs>
</svg>
