<svg width="20" height="20" viewBox="0 0 20 20" fill="none" xmlns="http://www.w3.org/2000/svg">
<g id="InputCard/State=Bold, Property 2=Essentional, UI, Property 3=Property 40">
<path id="Vector" fill-rule="evenodd" clip-rule="evenodd" d="M10.0001 18.3333C14.6025 18.3333 18.3334 14.6023 18.3334 9.99996C18.3334 5.39759 14.6025 1.66663 10.0001 1.66663C5.39771 1.66663 1.66675 5.39759 1.66675 9.99996C1.66675 14.6023 5.39771 18.3333 10.0001 18.3333ZM10.6251 7.49996C10.6251 7.15478 10.3453 6.87496 10.0001 6.87496C9.6549 6.87496 9.37508 7.15478 9.37508 7.49996L9.37508 9.37498H7.50008C7.1549 9.37498 6.87508 9.6548 6.87508 9.99998C6.87508 10.3452 7.1549 10.625 7.50008 10.625H9.37508V12.5C9.37508 12.8451 9.6549 13.125 10.0001 13.125C10.3453 13.125 10.6251 12.8451 10.6251 12.5L10.6251 10.625H12.5001C12.8453 10.625 13.1251 10.3452 13.1251 9.99998C13.1251 9.6548 12.8453 9.37498 12.5001 9.37498H10.6251V7.49996Z" fill="#6948EB"/>
</g>
</svg>
