<svg width="15" height="15" viewBox="0 0 15 15" fill="none" xmlns="http://www.w3.org/2000/svg">
<path d="M8.16329 0.388084C7.90381 -0.129361 7.09685 -0.129361 6.83736 0.388084L0.087697 13.8385C0.0269377 13.9591 -0.00318414 14.0942 0.000266379 14.2307C0.0037169 14.3672 0.0406221 14.5004 0.107386 14.6173C0.17415 14.7343 0.268496 14.831 0.38123 14.8981C0.493965 14.9652 0.621243 15.0003 0.750664 15H14.25C14.3793 15.0003 14.5065 14.9652 14.6192 14.8982C14.7318 14.8312 14.8261 14.7345 14.8928 14.6176C14.9595 14.5007 14.9963 14.3675 14.9997 14.2311C15.0031 14.0947 14.973 13.9597 14.9122 13.8393L8.16329 0.388084ZM8.25029 12.6264H6.75036V11.044H8.25029V12.6264ZM6.75036 9.46159V5.50558H8.25029L8.25104 9.46159H6.75036Z" fill="#923131"/>
</svg>
