<svg width="150" height="131" viewBox="0 0 150 131" fill="none" xmlns="http://www.w3.org/2000/svg">
<path d="M65.8323 106.617C52.129 101.932 45.7004 86.4451 46.5207 72.8793C47.1488 62.3288 51.1432 51.9098 57.0345 43.1711C61.4516 36.9577 66.7983 30.9924 73.7083 27.5112C75.3888 26.7955 77.7434 25.4672 79.5707 26.0909C80.4505 26.6014 79.7479 27.9467 78.8341 27.5685C78.1295 27.517 77.4507 27.8147 76.7821 27.9999C74.4 28.8428 72.1912 30.1187 70.1525 31.5965C57.3701 41.457 49.0231 57.5824 48.1313 73.635C47.3762 91.658 59.5737 109.825 79.4816 105.713C89.8293 103.508 98.6198 96.855 105.468 89.0476C113.076 80.4052 119.362 70.1548 121.503 58.7383C122.347 53.6684 122.288 48.3663 120.568 43.4736C118.874 38.6434 116.162 34.0761 111.952 31.0172C106.441 26.4783 100.858 25.4279 93.9041 26.6305C88.5806 27.5728 83.8682 30.5646 79.7479 33.9289C74.9748 38.2896 71.0693 43.5031 66.8702 48.3952C66.0825 49.2523 65.4795 50.316 64.5897 51.0601C63.4182 51.6432 63.0376 50.1819 63.8484 49.4882C67.1971 45.3301 70.6742 41.2762 74.1769 37.2458C76.6187 34.3761 79.4069 31.7887 82.5968 29.7589C85.3898 27.9019 88.3953 26.2875 91.6626 25.4395C95.457 24.5194 99.4918 24.2044 103.349 24.9252C108.143 25.8765 112.303 28.8178 115.752 32.1603C118.787 35.1437 120.701 39.0145 122.141 42.9636C124.957 51.0906 123.652 60.0522 120.615 67.9241C113.025 87.6867 89.3064 114.065 65.8323 106.617Z" fill="black"/>
<path d="M95.5898 96.3478H12.3486C11.9504 96.2935 11.4561 96.325 10.9429 96.3579C9.58148 96.4438 8.08857 96.5296 7.93435 94.9901V77.1255C7.9925 65.1084 7.82058 53.0647 7.99376 41.059C7.72577 40.2242 8.40207 39.2934 9.29326 39.3123H96.4645C98.7159 39.0319 98.9156 40.9605 98.769 42.7097V92.7723C98.9017 95.0747 98.6363 96.397 96.4089 96.397C96.1612 96.397 95.8894 96.3806 95.5898 96.3478Z" fill="#E0DDFF"/>
<path d="M19.0519 86.3463C18.1835 86.3463 17.7474 85.6669 17.7461 84.9887C17.7448 84.3054 18.1822 83.6234 19.0646 83.631C19.7838 83.6588 20.5006 83.6335 21.2186 83.607C21.819 83.5855 22.4182 83.564 23.0199 83.5729C31.9635 83.5287 40.9045 83.3152 49.8455 83.1018C50.7202 83.0904 51.1627 83.775 51.1627 84.4595C51.1627 85.1402 50.7265 85.8222 49.8455 85.8172C39.5266 86.0748 29.2014 86.2781 18.8813 86.3337L19.0646 86.3463H19.0519Z" fill="#5C4DEB"/>
<path d="M16.9382 49.9414C16.0824 49.1331 16.7233 47.5973 17.899 47.6238C19.1947 47.5329 20.4878 47.3674 21.7873 47.2828C26.6554 46.8105 31.5462 46.6438 36.4358 46.7675C37.1765 46.7814 37.7947 47.3737 37.7947 48.1252C37.7947 48.8767 37.1765 49.4968 36.4358 49.4829C33.8722 49.4324 31.3073 49.4261 28.745 49.5195C26.668 49.5903 24.5987 49.7633 22.5294 49.9401C22.0414 49.9148 21.2943 50.0222 20.4967 50.1295C19.7774 50.2255 19.0177 50.3228 18.373 50.3228C17.7283 50.3228 17.2012 50.2268 16.9395 49.9414H16.9382Z" fill="#5C4DEB"/>
<path d="M18.7652 60.8724C19.5157 60.8724 20.1241 60.2645 20.1241 59.5147C20.1241 58.7649 19.5157 58.157 18.7652 58.157C18.0147 58.157 17.4062 58.7649 17.4062 59.5147C17.4062 60.2645 18.0147 60.8724 18.7652 60.8724Z" fill="#5C4DEB"/>
<path d="M17.773 59.9366C17.7123 59.8797 17.658 59.8166 17.6087 59.7497C17.6567 59.8166 17.711 59.8823 17.773 59.9366ZM17.2256 66.0822C17.2952 63.7116 17.4494 61.3246 17.347 58.9578C17.3318 57.2844 19.8979 57.1555 20.0686 58.8151C20.1773 60.5074 20.0307 62.2124 20.0231 63.9086C19.8866 64.9341 20.2519 66.1933 19.544 67.042C19.2937 67.3123 18.9612 67.4323 18.6275 67.4323C17.9108 67.4323 17.1827 66.8816 17.2244 66.0809L17.2256 66.0822Z" fill="#5C4DEB"/>
<path d="M18.545 56.7476C22.1401 56.5581 25.6594 56.2222 29.2507 56.0933C30.4225 56.0353 31.0647 57.6241 30.2114 58.4109C29.1609 59.2179 26.2295 58.7734 24.7796 59.0348C22.6445 59.1573 20.5094 59.4276 18.3706 59.4503C18.4325 59.4541 18.4932 59.4591 18.545 59.4617C16.774 59.4427 16.7689 56.7665 18.545 56.7463V56.7476Z" fill="#5C4DEB"/>
<path d="M17.081 69.5868C16.162 68.9338 16.5387 67.3311 17.6625 67.1745C18.603 66.9838 19.5713 66.9661 20.527 66.879C24.4267 66.5014 28.3429 66.5986 32.2553 66.6087C34.0226 66.6277 34.0339 69.3039 32.2553 69.3241C31.354 69.3279 30.4527 69.319 29.5514 69.3115C27.9473 69.2976 26.3419 69.2824 24.7402 69.3355C22.8668 69.4049 20.9972 69.554 19.1302 69.7156C18.7244 69.7295 18.2971 69.8545 17.8901 69.8545C17.6056 69.8545 17.3313 69.7927 17.0823 69.5881L17.081 69.5868Z" fill="#5C4DEB"/>
<path d="M31.6227 67.8541C31.6922 64.5312 31.6151 61.197 31.3357 57.8842C30.6392 55.5957 33.0473 54.4704 33.9056 56.452C34.0586 57.6001 34.1357 58.7582 34.204 59.9151C34.3329 62.5584 34.4024 65.2081 34.3405 67.8541C34.3266 68.7394 33.649 69.1827 32.974 69.1827C32.299 69.1827 31.629 68.7407 31.6227 67.8541Z" fill="#5C4DEB"/>
<path d="M28.4685 58.4475C27.298 57.5218 28.26 55.818 29.6328 55.9709C30.7932 55.8534 32.7008 55.5907 32.7501 57.2452C32.7463 58.5498 31.3899 58.6787 30.3799 58.6294C30.0386 58.6446 29.6808 58.7191 29.337 58.7191C29.0298 58.7191 28.734 58.6597 28.4698 58.4463L28.4685 58.4475Z" fill="#5C4DEB"/>
<path d="M19.0414 64.319C17.6458 63.9918 17.7925 61.8057 19.2184 61.6642C20.413 61.6288 22.4355 61.2449 22.4962 62.9739C22.4482 64.1674 21.423 64.3733 20.3902 64.3733C19.9098 64.3733 19.427 64.3291 19.0414 64.3177V64.319Z" fill="#5C4DEB"/>
<path d="M21.341 64.3443C21.3612 64.3392 21.3827 64.3354 21.4042 64.3316C21.4585 64.3114 21.5141 64.2937 21.5685 64.2748C21.5685 64.2748 21.5672 64.2748 21.566 64.2748C21.5811 64.2659 21.595 64.2571 21.6102 64.2483C21.523 64.2887 21.4332 64.3215 21.341 64.3443ZM19.9606 63.8542C18.8431 61.5342 21.3056 61.5885 23.0374 61.6415C23.3408 61.6516 23.6214 61.6605 23.8565 61.6567C26.5958 61.668 29.3351 61.7072 32.0732 61.6112C32.814 61.5885 33.4321 62.2465 33.4321 62.9689C33.4447 63.7039 32.8038 64.3316 32.0732 64.3266C29.5829 64.4036 27.0939 64.3872 24.6023 64.3758C24.2181 64.3228 23.6543 64.3493 23.0462 64.3758C22.6973 64.391 22.3333 64.4061 21.9819 64.4061C21.0793 64.4061 20.2564 64.3064 19.9606 63.8542Z" fill="#5C4DEB"/>
<path d="M24.5871 67.1999C24.5656 64.8975 24.577 62.59 24.4594 60.2889C24.3962 59.1977 24.0018 57.4725 25.5263 57.2591C26.3366 57.1429 27.1241 57.8337 27.0672 58.6597C27.2442 60.9242 27.2682 63.195 27.291 65.4645C27.296 66.043 27.2998 66.6214 27.3049 67.1999C27.296 68.0852 26.621 68.5285 25.946 68.5285C25.2722 68.5285 24.5984 68.0865 24.5871 67.1999Z" fill="#5C4DEB"/>
<path d="M16.2184 68.5689C16.5825 65.8826 16.81 63.1748 17.1185 60.4796C17.3308 58.738 20.0752 59.1055 19.8123 60.8484C19.3977 63.6294 19.4394 66.5292 18.7568 69.2484C18.5027 69.7081 18.0615 69.9127 17.6153 69.9127C16.9099 69.9127 16.1982 69.3987 16.2172 68.5689H16.2184Z" fill="#5C4DEB"/>
<path d="M17.0855 77.2706C17.836 77.2706 18.4444 76.6628 18.4444 75.913C18.4444 75.1631 17.836 74.5553 17.0855 74.5553C16.335 74.5553 15.7266 75.1631 15.7266 75.913C15.7266 76.6628 16.335 77.2706 17.0855 77.2706Z" fill="#5C4DEB"/>
<path d="M21.3823 77.3577C22.1329 77.3577 22.7413 76.7499 22.7413 76C22.7413 75.2502 22.1329 74.6423 21.3823 74.6423C20.6318 74.6423 20.0234 75.2502 20.0234 76C20.0234 76.7499 20.6318 77.3577 21.3823 77.3577Z" fill="#5C4DEB"/>
<path d="M26.0757 77.1379C26.8262 77.1379 27.4346 76.5301 27.4346 75.7802C27.4346 75.0304 26.8262 74.4226 26.0757 74.4226C25.3252 74.4226 24.7168 75.0304 24.7168 75.7802C24.7168 76.5301 25.3252 77.1379 26.0757 77.1379Z" fill="#5C4DEB"/>
<path d="M34.5347 76.6529C35.2852 76.6529 35.8936 76.0451 35.8936 75.2953C35.8936 74.5454 35.2852 73.9376 34.5347 73.9376C33.7842 73.9376 33.1758 74.5454 33.1758 75.2953C33.1758 76.0451 33.7842 76.6529 34.5347 76.6529Z" fill="#5C4DEB"/>
<path d="M39.7456 76.8033C40.4961 76.8033 41.1045 76.1955 41.1045 75.4456C41.1045 74.6958 40.4961 74.0879 39.7456 74.0879C38.9951 74.0879 38.3867 74.6958 38.3867 75.4456C38.3867 76.1955 38.9951 76.8033 39.7456 76.8033Z" fill="#5C4DEB"/>
<path d="M43.9253 76.5368C44.6758 76.5368 45.2842 75.929 45.2842 75.1791C45.2842 74.4293 44.6758 73.8215 43.9253 73.8215C43.1748 73.8215 42.5664 74.4293 42.5664 75.1791C42.5664 75.929 43.1748 76.5368 43.9253 76.5368Z" fill="#5C4DEB"/>
<path d="M51.8882 76.8613C52.6387 76.8613 53.2471 76.2535 53.2471 75.5036C53.2471 74.7538 52.6387 74.146 51.8882 74.146C51.1377 74.146 50.5293 74.7538 50.5293 75.5036C50.5293 76.2535 51.1377 76.8613 51.8882 76.8613Z" fill="#5C4DEB"/>
<path d="M56.0034 76.6821C56.7539 76.6821 57.3624 76.0742 57.3624 75.3244C57.3624 74.5745 56.7539 73.9667 56.0034 73.9667C55.2529 73.9667 54.6445 74.5745 54.6445 75.3244C54.6445 76.0742 55.2529 76.6821 56.0034 76.6821Z" fill="#5C4DEB"/>
<path d="M59.939 76.7982C60.6895 76.7982 61.2979 76.1903 61.2979 75.4405C61.2979 74.6907 60.6895 74.0828 59.939 74.0828C59.1885 74.0828 58.5801 74.6907 58.5801 75.4405C58.5801 76.1903 59.1885 76.7982 59.939 76.7982Z" fill="#5C4DEB"/>
<path d="M66.5855 76.8033C67.336 76.8033 67.9444 76.1955 67.9444 75.4456C67.9444 74.6958 67.336 74.0879 66.5855 74.0879C65.835 74.0879 65.2266 74.6958 65.2266 75.4456C65.2266 76.1955 65.835 76.8033 66.5855 76.8033Z" fill="#5C4DEB"/>
<path d="M70.8804 76.4926C71.6309 76.4926 72.2393 75.8848 72.2393 75.135C72.2393 74.3851 71.6309 73.7773 70.8804 73.7773C70.1299 73.7773 69.5215 74.3851 69.5215 75.135C69.5215 75.8848 70.1299 76.4926 70.8804 76.4926Z" fill="#5C4DEB"/>
<path d="M74.6597 76.4636C75.4102 76.4636 76.0186 75.8557 76.0186 75.1059C76.0186 74.356 75.4102 73.7482 74.6597 73.7482C73.9092 73.7482 73.3008 74.356 73.3008 75.1059C73.3008 75.8557 73.9092 76.4636 74.6597 76.4636Z" fill="#5C4DEB"/>
</svg>
