<svg width="150" height="150" viewBox="0 0 150 150" fill="none" xmlns="http://www.w3.org/2000/svg">
<g clip-path="url(#clip0_8653_46035)">
<path d="M130.221 107.817C131.377 110.613 127.977 110.523 126.135 110.392C120.198 110.215 114.264 110.026 108.328 109.863C86.6878 109.228 65.0554 108.745 43.4304 109.845C36.2439 110.146 29.0743 110.815 21.8835 110.988C20.6791 110.984 19.4022 111.001 18.211 110.732C17.6236 110.599 17.058 110.398 16.5315 110.089C13.1235 107.745 19.1549 101.853 20.4971 99.4061C37.9269 75.0829 54.8116 50.3577 73.1446 26.7037C73.1417 26.7006 73.1389 26.6963 73.1359 26.6931C73.1612 26.6631 73.1854 26.6328 73.2098 26.6013C73.291 26.4988 73.3722 26.3962 73.4511 26.2932C73.4987 26.2299 73.5475 26.167 73.5931 26.102C73.6401 26.0362 73.687 25.9703 73.7275 25.9005C73.7286 25.8958 73.7317 25.8928 73.734 25.8884C73.8074 25.8039 73.882 25.7196 73.959 25.6358C74.0087 25.5854 74.0602 25.5378 74.1149 25.4922C74.1646 25.4529 74.213 25.4132 74.2654 25.3782C74.2723 25.3748 74.2795 25.3703 74.2865 25.3669C74.3096 25.3574 74.3325 25.349 74.3566 25.3408C74.4677 25.308 74.5804 25.2792 74.6925 25.2478C74.7137 25.2415 74.736 25.2354 74.7584 25.2294C74.7679 25.2365 74.7777 25.2424 74.7874 25.2483C74.8743 25.3012 74.9653 25.3354 75.0637 25.3588C75.1342 25.3748 75.2052 25.3884 75.276 25.4031C75.3401 25.4201 75.4031 25.4417 75.4656 25.4657C75.478 25.471 75.4906 25.4751 75.503 25.4803C77.838 28.3481 80.1024 31.2764 82.3784 34.1864C96.4628 53.5314 107.985 74.6127 121.239 94.5237C124.019 99.1005 127.503 103.217 130.22 107.817L130.221 107.817Z" fill="#E0DDFF"/>
<path d="M60.2996 102.323C60.2996 102.323 60.2969 102.324 60.2969 102.325C60.2969 102.325 60.2982 102.324 60.2996 102.323Z" fill="black"/>
<path d="M60.2996 102.323C60.2996 102.323 60.2982 102.323 60.2969 102.324L60.2996 102.323Z" fill="black"/>
<path d="M74.2292 88.414C74.1178 88.406 73.9985 88.3751 73.8722 88.3184C73.049 87.8761 73.2091 86.867 73.2111 86.0801C73.2419 82.8388 73.2807 79.5985 73.3224 76.3582C73.4218 67.194 73.6028 57.989 73.7798 48.8328C73.7947 48.3029 73.7798 47.767 73.7569 47.2371C73.8146 46.1125 75.4938 45.8804 75.8349 46.9711C76.0556 49.2462 75.806 51.5691 75.82 53.8582C75.6231 62.5472 75.5247 71.2382 75.4113 79.9292C75.3855 82.1435 75.3606 84.3579 75.3387 86.5732C75.4581 87.3103 75.0693 88.417 74.2898 88.417C74.2699 88.417 74.2491 88.417 74.2282 88.415L74.2292 88.414Z" fill="black"/>
<path d="M73.7518 99.0733C73.4933 99.0046 73.2546 98.8343 73.0906 98.5394C72.7655 97.7973 72.7526 96.9327 72.7645 96.1318C72.8609 94.9076 72.6989 93.3806 73.5519 92.4084C74.3543 91.7858 75.1845 92.5498 75.4986 93.29C75.7571 94.811 75.5225 96.4287 75.2928 97.9487C75.2302 98.7247 74.4776 99.2138 73.8263 99.0903C73.8015 99.0853 73.7766 99.0803 73.7518 99.0733Z" fill="black"/>
</g>
<defs>
<clipPath id="clip0_8653_46035">
<rect width="112.394" height="95.8653" fill="white" transform="translate(36.1387 16.5) rotate(12.7376)"/>
</clipPath>
</defs>
</svg>
