<svg width="18" height="14" viewBox="0 0 18 14" fill="none" xmlns="http://www.w3.org/2000/svg">
<path d="M10.668 0.333008H7.33464C4.19194 0.333008 2.62059 0.333008 1.64428 1.30932C0.941329 2.01227 0.744508 3.02369 0.689399 4.70801H17.3132C17.2581 3.02369 17.0613 2.01227 16.3583 1.30932C15.382 0.333008 13.8107 0.333008 10.668 0.333008Z" fill="#697395"/>
<path d="M7.33464 13.6663H10.668C13.8107 13.6663 15.382 13.6663 16.3583 12.69C17.3346 11.7137 17.3346 10.1424 17.3346 6.99967C17.3346 6.6314 17.3346 6.2847 17.3331 5.95801H0.66954C0.667969 6.2847 0.667969 6.6314 0.667969 6.99967C0.667969 10.1424 0.667969 11.7137 1.64428 12.69C2.62059 13.6663 4.19194 13.6663 7.33464 13.6663Z" fill="#697395"/>
<path fill-rule="evenodd" clip-rule="evenodd" d="M3.3763 10.333C3.3763 9.98783 3.65612 9.70801 4.0013 9.70801H7.33464C7.67981 9.70801 7.95964 9.98783 7.95964 10.333C7.95964 10.6782 7.67981 10.958 7.33464 10.958H4.0013C3.65612 10.958 3.3763 10.6782 3.3763 10.333Z" fill="white"/>
<path fill-rule="evenodd" clip-rule="evenodd" d="M8.79297 10.333C8.79297 9.98783 9.07279 9.70801 9.41797 9.70801H10.668C11.0131 9.70801 11.293 9.98783 11.293 10.333C11.293 10.6782 11.0131 10.958 10.668 10.958H9.41797C9.07279 10.958 8.79297 10.6782 8.79297 10.333Z" fill="white"/>
</svg>
