<svg width="18" height="18" viewBox="0 0 18 18" fill="none" xmlns="http://www.w3.org/2000/svg">
<path fill-rule="evenodd" clip-rule="evenodd" d="M9.04464 0.0419931H8.95797C8.20925 0.0419696 7.58488 0.0419501 7.08924 0.108588C6.56608 0.178925 6.09374 0.33365 5.71418 0.713209C5.33463 1.09277 5.1799 1.5651 5.10956 2.08826C5.06179 2.44357 5.04828 3.29322 5.04446 4.02171C3.35925 4.07675 2.34744 4.27348 1.64428 4.97664C0.667969 5.95295 0.667969 7.5243 0.667969 10.667C0.667969 13.8097 0.667969 15.381 1.64428 16.3573C2.62059 17.3337 4.19193 17.3337 7.33462 17.3337H10.668C13.8107 17.3337 15.382 17.3337 16.3583 16.3573C17.3346 15.381 17.3346 13.8097 17.3346 10.667C17.3346 7.5243 17.3346 5.95295 16.3583 4.97664C15.6552 4.27348 14.6434 4.07675 12.9581 4.02171C12.9543 3.29322 12.9408 2.44357 12.893 2.08826C12.8227 1.5651 12.668 1.09277 12.2884 0.713209C11.9089 0.33365 11.4365 0.178925 10.9134 0.108588C10.4177 0.0419501 9.79336 0.0419696 9.04464 0.0419931ZM11.7079 4.00189C11.7041 3.29635 11.6921 2.53705 11.6542 2.25482C11.6025 1.87027 11.5131 1.70569 11.4045 1.59709C11.2959 1.4885 11.1314 1.39914 10.7468 1.34744C10.3443 1.29332 9.80465 1.292 9.0013 1.292C8.19796 1.292 7.65833 1.29332 7.2558 1.34744C6.87125 1.39914 6.70666 1.4885 6.59807 1.59709C6.48947 1.70569 6.40012 1.87027 6.34842 2.25482C6.31047 2.53705 6.29848 3.29635 6.2947 4.00189C6.62088 4.00033 6.96701 4.00033 7.33464 4.00033H10.668C11.0356 4.00033 11.3817 4.00033 11.7079 4.00189ZM9.0013 6.70866C9.34648 6.70866 9.6263 6.98848 9.6263 7.33366V7.34219C10.5336 7.57077 11.293 8.28616 11.293 9.2781C11.293 9.62328 11.0131 9.9031 10.668 9.9031C10.3228 9.9031 10.043 9.62328 10.043 9.2781C10.043 8.95808 9.68814 8.51422 9.0013 8.51422C8.31447 8.51422 7.95964 8.95808 7.95964 9.2781C7.95964 9.59813 8.31447 10.042 9.0013 10.042C10.1554 10.042 11.293 10.8418 11.293 12.0559C11.293 13.0478 10.5336 13.7632 9.6263 13.9918V14.0003C9.6263 14.3455 9.34648 14.6253 9.0013 14.6253C8.65612 14.6253 8.3763 14.3455 8.3763 14.0003V13.9918C7.46898 13.7632 6.70964 13.0478 6.70964 12.0559C6.70964 11.7107 6.98946 11.4309 7.33464 11.4309C7.67981 11.4309 7.95964 11.7107 7.95964 12.0559C7.95964 12.3759 8.31447 12.8198 9.0013 12.8198C9.68814 12.8198 10.043 12.3759 10.043 12.0559C10.043 11.7359 9.68814 11.292 9.0013 11.292C7.84719 11.292 6.70964 10.4922 6.70964 9.2781C6.70964 8.28616 7.46898 7.57077 8.3763 7.34219V7.33366C8.3763 6.98848 8.65612 6.70866 9.0013 6.70866Z" fill="#697395"/>
</svg>
