<svg width="18" height="18" viewBox="0 0 18 18" fill="none" xmlns="http://www.w3.org/2000/svg">
<path d="M5.45842 1.08333C5.45842 0.738154 5.17859 0.458332 4.83342 0.458332C4.48824 0.458332 4.20841 0.738154 4.20841 1.08333V2.39938C3.00897 2.49543 2.22156 2.73114 1.64306 3.30964C1.06456 3.88814 0.828842 4.67556 0.732796 5.875H17.2674C17.1713 4.67556 16.9356 3.88814 16.3571 3.30964C15.7786 2.73114 14.9912 2.49543 13.7917 2.39938V1.08333C13.7917 0.738154 13.5119 0.458332 13.1667 0.458332C12.8216 0.458332 12.5417 0.738154 12.5417 1.08333V2.34408C11.9874 2.33333 11.3659 2.33333 10.6667 2.33333H7.33342C6.63422 2.33333 6.0128 2.33333 5.45842 2.34408V1.08333Z" fill="#697395"/>
<path fill-rule="evenodd" clip-rule="evenodd" d="M0.666748 9C0.666748 8.3008 0.666748 7.67939 0.6775 7.125H17.3227C17.3334 7.67939 17.3334 8.3008 17.3334 9V10.6667C17.3334 13.8094 17.3334 15.3807 16.3571 16.357C15.3808 17.3333 13.8094 17.3333 10.6667 17.3333H7.33341C4.19072 17.3333 2.61937 17.3333 1.64306 16.357C0.666748 15.3807 0.666748 13.8094 0.666748 10.6667V9ZM13.1667 10.6667C13.627 10.6667 14.0001 10.2936 14.0001 9.83333C14.0001 9.37309 13.627 9 13.1667 9C12.7065 9 12.3334 9.37309 12.3334 9.83333C12.3334 10.2936 12.7065 10.6667 13.1667 10.6667ZM13.1667 14C13.627 14 14.0001 13.6269 14.0001 13.1667C14.0001 12.7064 13.627 12.3333 13.1667 12.3333C12.7065 12.3333 12.3334 12.7064 12.3334 13.1667C12.3334 13.6269 12.7065 14 13.1667 14ZM9.83342 9.83333C9.83342 10.2936 9.46032 10.6667 9.00008 10.6667C8.53984 10.6667 8.16675 10.2936 8.16675 9.83333C8.16675 9.37309 8.53984 9 9.00008 9C9.46032 9 9.83342 9.37309 9.83342 9.83333ZM9.83342 13.1667C9.83342 13.6269 9.46032 14 9.00008 14C8.53984 14 8.16675 13.6269 8.16675 13.1667C8.16675 12.7064 8.53984 12.3333 9.00008 12.3333C9.46032 12.3333 9.83342 12.7064 9.83342 13.1667ZM4.83342 10.6667C5.29365 10.6667 5.66675 10.2936 5.66675 9.83333C5.66675 9.37309 5.29365 9 4.83342 9C4.37318 9 4.00008 9.37309 4.00008 9.83333C4.00008 10.2936 4.37318 10.6667 4.83342 10.6667ZM4.83342 14C5.29365 14 5.66675 13.6269 5.66675 13.1667C5.66675 12.7064 5.29365 12.3333 4.83342 12.3333C4.37318 12.3333 4.00008 12.7064 4.00008 13.1667C4.00008 13.6269 4.37318 14 4.83342 14Z" fill="#697395"/>
</svg>
