<svg width="14" height="12" viewBox="0 0 14 12" fill="none" xmlns="http://www.w3.org/2000/svg">
<path fill-rule="evenodd" clip-rule="evenodd" d="M5.51819 12H8.48116C10.5618 12 11.6022 12 12.3495 11.5097C12.673 11.2975 12.9508 11.0248 13.167 10.7071C13.6663 9.97337 13.6663 8.95195 13.6663 6.90909C13.6663 4.86624 13.6663 3.84481 13.167 3.11107C12.9508 2.79342 12.673 2.5207 12.3495 2.30845C11.8693 1.99342 11.2681 1.88082 10.3477 1.84057C9.90844 1.84057 9.53026 1.51379 9.44412 1.09091C9.31491 0.456592 8.74764 0 8.08878 0H5.91057C5.25171 0 4.68444 0.456592 4.55523 1.09091C4.46909 1.51379 4.09091 1.84057 3.65167 1.84057C2.73123 1.88082 2.13004 1.99342 1.64984 2.30845C1.32631 2.5207 1.04853 2.79342 0.832357 3.11107C0.333008 3.84481 0.333008 4.86624 0.333008 6.90909C0.333008 8.95195 0.333008 9.97337 0.832357 10.7071C1.04853 11.0248 1.32631 11.2975 1.64984 11.5097C2.39717 12 3.43751 12 5.51819 12ZM6.99967 4.18182C5.46555 4.18182 4.2219 5.40286 4.2219 6.90909C4.2219 8.41532 5.46555 9.63636 6.99967 9.63636C8.5338 9.63636 9.77745 8.41532 9.77745 6.90909C9.77745 5.40286 8.5338 4.18182 6.99967 4.18182ZM6.99967 5.27273C6.0792 5.27273 5.33301 6.00535 5.33301 6.90909C5.33301 7.81283 6.0792 8.54546 6.99967 8.54546C7.92015 8.54546 8.66634 7.81283 8.66634 6.90909C8.66634 6.00535 7.92015 5.27273 6.99967 5.27273ZM10.1478 4.72727C10.1478 4.42603 10.3966 4.18182 10.7034 4.18182H11.4441C11.7509 4.18182 11.9997 4.42603 11.9997 4.72727C11.9997 5.02852 11.7509 5.27273 11.4441 5.27273H10.7034C10.3966 5.27273 10.1478 5.02852 10.1478 4.72727Z" fill="#8F78FF"/>
</svg>
