<svg width="14" height="12" viewBox="0 0 14 12" fill="none" xmlns="http://www.w3.org/2000/svg">
<path fill-rule="evenodd" clip-rule="evenodd" d="M5.66634 0.666664H8.33301C10.8472 0.666664 12.1042 0.666664 12.8853 1.44771C13.6663 2.22876 13.6663 3.48584 13.6663 6C13.6663 8.51415 13.6663 9.77123 12.8853 10.5523C12.1042 11.3333 10.8472 11.3333 8.33301 11.3333H5.66634C3.15218 11.3333 1.89511 11.3333 1.11406 10.5523C0.333008 9.77123 0.333008 8.51415 0.333008 6C0.333008 3.48584 0.333008 2.22876 1.11406 1.44771C1.89511 0.666664 3.15218 0.666664 5.66634 0.666664ZM7.83301 4C7.83301 3.72386 8.05686 3.5 8.33301 3.5H11.6663C11.9425 3.5 12.1663 3.72386 12.1663 4C12.1663 4.27614 11.9425 4.5 11.6663 4.5H8.33301C8.05686 4.5 7.83301 4.27614 7.83301 4ZM8.49967 6C8.49967 5.72386 8.72353 5.5 8.99967 5.5H11.6663C11.9425 5.5 12.1663 5.72386 12.1663 6C12.1663 6.27614 11.9425 6.5 11.6663 6.5H8.99967C8.72353 6.5 8.49967 6.27614 8.49967 6ZM9.16634 8C9.16634 7.72386 9.3902 7.5 9.66634 7.5H11.6663C11.9425 7.5 12.1663 7.72386 12.1663 8C12.1663 8.27614 11.9425 8.5 11.6663 8.5H9.66634C9.3902 8.5 9.16634 8.27614 9.16634 8ZM6.33301 4C6.33301 4.73638 5.73605 5.33333 4.99967 5.33333C4.26329 5.33333 3.66634 4.73638 3.66634 4C3.66634 3.26362 4.26329 2.66666 4.99967 2.66666C5.73605 2.66666 6.33301 3.26362 6.33301 4ZM4.99967 9.33333C7.66634 9.33333 7.66634 8.73638 7.66634 8C7.66634 7.26362 6.47243 6.66666 4.99967 6.66666C3.52691 6.66666 2.33301 7.26362 2.33301 8C2.33301 8.73638 2.33301 9.33333 4.99967 9.33333Z" fill="#8F78FF"/>
</svg>
