<svg width="18" height="18" viewBox="0 0 18 18" fill="none" xmlns="http://www.w3.org/2000/svg">
<path d="M14.55 15H7.2C7.08065 15 6.96619 14.9526 6.8818 14.8682C6.79741 14.7838 6.75 14.6693 6.75 14.55V7.2C6.75 7.08065 6.79741 6.96619 6.8818 6.8818C6.96619 6.79741 7.08065 6.75 7.2 6.75H14.55C14.6693 6.75 14.7838 6.79741 14.8682 6.8818C14.9526 6.96619 15 7.08065 15 7.2V14.55C15 14.6693 14.9526 14.7838 14.8682 14.8682C14.7838 14.9526 14.6693 15 14.55 15Z" stroke="#0C122A" stroke-linecap="round" stroke-linejoin="round"/>
<path d="M11.25 6.75V3.45C11.25 3.33065 11.2026 3.21619 11.1182 3.1318C11.0338 3.04741 10.9193 3 10.8 3H3.45C3.33065 3 3.21619 3.04741 3.1318 3.1318C3.04741 3.21619 3 3.33065 3 3.45V10.8C3 10.9193 3.04741 11.0338 3.1318 11.1182C3.21619 11.2026 3.33065 11.25 3.45 11.25H6.75" stroke="#0C122A" stroke-linecap="round" stroke-linejoin="round"/>
</svg>
