<svg width="18" height="16" viewBox="0 0 18 16" fill="none" xmlns="http://www.w3.org/2000/svg">
<path fill-rule="evenodd" clip-rule="evenodd" d="M3.42675 6.96791C5.85872 2.65597 7.0747 0.5 9.00033 0.5C10.9259 0.5 12.1419 2.65597 14.5739 6.96791L14.8769 7.50522C16.8979 11.0884 17.9084 12.88 16.9951 14.19C16.0818 15.5 13.8224 15.5 9.30338 15.5H8.69727C4.17829 15.5 1.9188 15.5 1.00554 14.19C0.0922773 12.88 1.10275 11.0884 3.1237 7.50523L3.42675 6.96791ZM9.00033 4.04167C9.3455 4.04167 9.62533 4.32149 9.62533 4.66667V8.83333C9.62533 9.17851 9.3455 9.45833 9.00033 9.45833C8.65515 9.45833 8.37533 9.17851 8.37533 8.83333V4.66667C8.37533 4.32149 8.65515 4.04167 9.00033 4.04167ZM9.00033 12.1667C9.46056 12.1667 9.83366 11.7936 9.83366 11.3333C9.83366 10.8731 9.46056 10.5 9.00033 10.5C8.54009 10.5 8.16699 10.8731 8.16699 11.3333C8.16699 11.7936 8.54009 12.1667 9.00033 12.1667Z" fill="#EA1717"/>
</svg>
