<svg width="16" height="16" viewBox="0 0 16 16" fill="none" xmlns="http://www.w3.org/2000/svg">
<path fill-rule="evenodd" clip-rule="evenodd" d="M3.07554 5.69653L2.79134 6.83334H1.33301C1.05687 6.83334 0.833008 7.0572 0.833008 7.33334C0.833008 7.60948 1.05687 7.83334 1.33301 7.83334H14.6663C14.9425 7.83334 15.1663 7.60948 15.1663 7.33334C15.1663 7.0572 14.9425 6.83334 14.6663 6.83334H13.208L12.9238 5.69653C12.56 4.24141 12.3781 3.51385 11.8356 3.09026C11.2931 2.66667 10.5431 2.66667 9.04323 2.66667H6.95611C5.45621 2.66667 4.70626 2.66667 4.16374 3.09026C3.62121 3.51385 3.43932 4.24141 3.07554 5.69653ZM4.33301 14C5.41512 14 6.32518 13.2634 6.58912 12.2642L7.32885 11.8944C7.75115 11.6832 8.2482 11.6832 8.6705 11.8944L9.41023 12.2642C9.67417 13.2634 10.5842 14 11.6663 14C12.955 14 13.9997 12.9553 13.9997 11.6667C13.9997 10.378 12.955 9.33334 11.6663 9.33334C10.5596 9.33334 9.63285 10.1038 9.39322 11.1377L9.11771 10.9999C8.41389 10.648 7.58546 10.648 6.88164 10.9999L6.60612 11.1377C6.3665 10.1038 5.43973 9.33334 4.33301 9.33334C3.04434 9.33334 1.99967 10.378 1.99967 11.6667C1.99967 12.9553 3.04434 14 4.33301 14Z" fill="#8F78FF"/>
</svg>
