<svg width="35" height="35" viewBox="0 0 35 35" fill="none" xmlns="http://www.w3.org/2000/svg">
<rect x="0.5" y="0.5" width="34" height="34" rx="17" stroke="#454545"/>
<path d="M26.45 13.824C26.4399 13.0666 26.2981 12.3168 26.031 11.608C25.7993 11.0102 25.4455 10.4672 24.9922 10.0138C24.5388 9.56046 23.9958 9.20665 23.398 8.975C22.6983 8.71236 21.9592 8.57034 21.212 8.555C20.25 8.512 19.945 8.5 17.503 8.5C15.061 8.5 14.748 8.5 13.793 8.555C13.0462 8.57045 12.3073 8.71247 11.608 8.975C11.0101 9.20649 10.467 9.56024 10.0136 10.0136C9.56024 10.467 9.20649 11.0101 8.975 11.608C8.71183 12.3071 8.57012 13.0461 8.556 13.793C8.513 14.756 8.5 15.061 8.5 17.503C8.5 19.945 8.5 20.257 8.556 21.213C8.571 21.961 8.712 22.699 8.975 23.4C9.20688 23.9978 9.5609 24.5406 10.0144 24.9938C10.468 25.447 11.0111 25.8006 11.609 26.032C12.3064 26.3052 13.0454 26.4574 13.794 26.482C14.757 26.525 15.062 26.538 17.504 26.538C19.946 26.538 20.259 26.538 21.214 26.482C21.9612 26.4673 22.7004 26.3256 23.4 26.063C23.9977 25.8311 24.5405 25.4772 24.9938 25.0238C25.4472 24.5705 25.8011 24.0277 26.033 23.43C26.296 22.73 26.437 21.992 26.452 21.243C26.495 20.281 26.508 19.976 26.508 17.533C26.506 15.091 26.506 14.781 26.45 13.824ZM17.497 22.121C14.943 22.121 12.874 20.052 12.874 17.498C12.874 14.944 14.943 12.875 17.497 12.875C18.7231 12.875 19.899 13.3621 20.766 14.229C21.6329 15.096 22.12 16.2719 22.12 17.498C22.12 18.7241 21.6329 19.9 20.766 20.767C19.899 21.6339 18.7231 22.121 17.497 22.121ZM22.304 13.782C22.1624 13.7821 22.0222 13.7543 21.8913 13.7002C21.7605 13.6461 21.6416 13.5667 21.5414 13.4666C21.4413 13.3664 21.3619 13.2475 21.3078 13.1167C21.2537 12.9858 21.2259 12.8456 21.226 12.704C21.226 12.5625 21.2539 12.4224 21.308 12.2917C21.3622 12.1609 21.4415 12.0421 21.5416 11.9421C21.6416 11.842 21.7604 11.7627 21.8912 11.7085C22.0219 11.6544 22.162 11.6265 22.3035 11.6265C22.445 11.6265 22.5851 11.6544 22.7158 11.7085C22.8466 11.7627 22.9654 11.842 23.0654 11.9421C23.1655 12.0421 23.2448 12.1609 23.299 12.2917C23.3531 12.4224 23.381 12.5625 23.381 12.704C23.381 13.3 22.899 13.782 22.304 13.782Z" fill="#FEFEFE"/>
<path d="M17.4971 20.5001C19.1557 20.5001 20.5001 19.1557 20.5001 17.4971C20.5001 15.8386 19.1557 14.4941 17.4971 14.4941C15.8386 14.4941 14.4941 15.8386 14.4941 17.4971C14.4941 19.1557 15.8386 20.5001 17.4971 20.5001Z" fill="#FEFEFE"/>
</svg>
