<svg width="10" height="14" viewBox="0 0 10 14" fill="none" xmlns="http://www.w3.org/2000/svg">
<path fill-rule="evenodd" clip-rule="evenodd" d="M3.16634 11.4726C3.16634 11.1929 3.3902 10.9662 3.66634 10.9662H6.33301C6.60915 10.9662 6.83301 11.1929 6.83301 11.4726C6.83301 11.7522 6.60915 11.9789 6.33301 11.9789H3.66634C3.3902 11.9789 3.16634 11.7522 3.16634 11.4726ZM3.61079 13.1603C3.61079 12.8807 3.83464 12.654 4.11079 12.654H5.88856C6.16471 12.654 6.38856 12.8807 6.38856 13.1603C6.38856 13.44 6.16471 13.6667 5.88856 13.6667H4.11079C3.83464 13.6667 3.61079 13.44 3.61079 13.1603Z" fill="#8F78FF"/>
<path d="M1.94006 8.21887L2.67609 8.92043C2.88259 9.11724 2.99967 9.39166 2.99967 9.67882C2.99967 10.1102 3.34501 10.4599 3.771 10.4599H6.22835C6.65434 10.4599 6.99967 10.1102 6.99967 9.67882C6.99967 9.39166 7.11676 9.11724 7.32326 8.92043L8.05929 8.21887C9.08675 7.23205 9.66051 5.93562 9.6663 4.5878L9.66634 4.53118C9.66634 2.22828 7.577 0.333328 4.99967 0.333328C2.42235 0.333328 0.333008 2.22828 0.333008 4.53118L0.333052 4.5878C0.338843 5.93562 0.912603 7.23205 1.94006 8.21887Z" fill="#8F78FF"/>
</svg>
