<svg width="111" height="45" viewBox="0 0 128 52" fill="none" xmlns="http://www.w3.org/2000/svg">
<path d="M8.17043 33.2536C6.47226 33.2536 5.0144 32.8932 3.79685 32.1722C2.57929 31.4353 1.6421 30.418 0.985257 29.1203C0.328419 27.8067 0 26.2927 0 24.5786C0 22.8644 0.328419 21.3504 0.985257 20.0368C1.6421 18.7231 2.57929 17.6978 3.79685 16.9608C5.0144 16.2239 6.47226 15.8554 8.17043 15.8554C10.189 15.8554 11.8391 16.3601 13.1207 17.3694C14.4184 18.3626 15.2274 19.7644 15.5478 21.5747H12.1595C11.9513 20.6616 11.5027 19.9486 10.8138 19.436C10.1409 18.9073 9.2438 18.643 8.12237 18.643C6.56838 18.643 5.35083 19.1717 4.4697 20.229C3.58858 21.2864 3.14802 22.7362 3.14802 24.5786C3.14802 26.4209 3.58858 27.8708 4.4697 28.9281C5.35083 29.9694 6.56838 30.4901 8.12237 30.4901C9.2438 30.4901 10.1409 30.2498 10.8138 29.7692C11.5027 29.2725 11.9513 28.5917 12.1595 27.7266H15.5478C15.2274 29.4568 14.4184 30.8105 13.1207 31.7878C11.8391 32.765 10.189 33.2536 8.17043 33.2536Z" fill="#0C122A"/>
<path d="M16.8768 32.9653V21.046H19.6163L19.9047 23.2809C20.3373 22.5119 20.922 21.9031 21.659 21.4546C22.4119 20.99 23.293 20.7577 24.3023 20.7577V24.0018H23.4372C22.7644 24.0018 22.1636 24.106 21.6349 24.3142C21.1062 24.5225 20.6897 24.8829 20.3853 25.3956C20.097 25.9083 19.9528 26.6212 19.9528 27.5343V32.9653H16.8768Z" fill="#0C122A"/>
<path d="M30.6631 33.2536C29.4616 33.2536 28.3962 32.9973 27.4671 32.4846C26.5379 31.972 25.8089 31.2511 25.2803 30.3219C24.7516 29.3927 24.4872 28.3193 24.4872 27.1018C24.4872 25.8682 24.7436 24.7708 25.2562 23.8096C25.7849 22.8483 26.5058 22.1034 27.419 21.5747C28.3482 21.03 29.4376 20.7577 30.6872 20.7577C31.8567 20.7577 32.89 21.014 33.7871 21.5267C34.6843 22.0393 35.3812 22.7442 35.8778 23.6414C36.3904 24.5225 36.6468 25.5077 36.6468 26.5971C36.6468 26.7734 36.6388 26.9576 36.6227 27.1498C36.6227 27.3421 36.6147 27.5423 36.5987 27.7506H27.5391C27.6032 28.6798 27.9236 29.4087 28.5004 29.9374C29.0931 30.4661 29.806 30.7304 30.6391 30.7304C31.2639 30.7304 31.7846 30.5942 32.2011 30.3219C32.6336 30.0335 32.9541 29.665 33.1623 29.2165H36.2863C36.062 29.9694 35.6855 30.6583 35.1569 31.2831C34.6442 31.8919 34.0034 32.3725 33.2344 32.725C32.4815 33.0774 31.6244 33.2536 30.6631 33.2536ZM30.6872 23.2569C29.9342 23.2569 29.2694 23.4731 28.6926 23.9057C28.1159 24.3222 27.7474 24.963 27.5872 25.8281H33.5228C33.4747 25.0431 33.1864 24.4184 32.6577 23.9538C32.129 23.4892 31.4722 23.2569 30.6872 23.2569Z" fill="#0C122A"/>
<path d="M43.3911 33.2536C42.2697 33.2536 41.2684 32.9813 40.3873 32.4366C39.5062 31.8919 38.8093 31.1469 38.2966 30.2017C37.784 29.2565 37.5276 28.1832 37.5276 26.9816C37.5276 25.7801 37.784 24.7147 38.2966 23.7855C38.8093 22.8403 39.5062 22.1034 40.3873 21.5747C41.2684 21.03 42.2697 20.7577 43.3911 20.7577C44.2883 20.7577 45.0733 20.9259 45.7461 21.2623C46.419 21.5988 46.9637 22.0714 47.3802 22.6801V15.6632H50.4561V32.9653H47.7166L47.3802 31.2591C46.9957 31.7878 46.4831 32.2523 45.8423 32.6529C45.2175 33.0534 44.4004 33.2536 43.3911 33.2536ZM44.04 30.5622C45.0332 30.5622 45.8423 30.2338 46.4671 29.5769C47.1079 28.9041 47.4283 28.047 47.4283 27.0057C47.4283 25.9643 47.1079 25.1152 46.4671 24.4584C45.8423 23.7855 45.0332 23.4491 44.04 23.4491C43.0627 23.4491 42.2537 23.7775 41.6129 24.4344C40.972 25.0912 40.6516 25.9403 40.6516 26.9816C40.6516 28.0229 40.972 28.88 41.6129 29.5529C42.2537 30.2258 43.0627 30.5622 44.04 30.5622Z" fill="#0C122A"/>
<path d="M53.9248 19.1957C53.3641 19.1957 52.8995 19.0275 52.531 18.691C52.1786 18.3546 52.0024 17.9301 52.0024 17.4174C52.0024 16.9048 52.1786 16.4882 52.531 16.1678C52.8995 15.8314 53.3641 15.6632 53.9248 15.6632C54.4855 15.6632 54.9421 15.8314 55.2946 16.1678C55.663 16.4882 55.8473 16.9048 55.8473 17.4174C55.8473 17.9301 55.663 18.3546 55.2946 18.691C54.9421 19.0275 54.4855 19.1957 53.9248 19.1957ZM52.3869 32.9653V21.046H55.4628V32.9653H52.3869Z" fill="#0C122A"/>
<path d="M62.6624 32.9653C61.4128 32.9653 60.4115 32.6609 59.6586 32.0521C58.9056 31.4433 58.5291 30.3619 58.5291 28.808V23.6173H56.4865V21.046H58.5291L58.8896 17.85H61.6051V21.046H64.8252V23.6173H61.6051V28.832C61.6051 29.4087 61.7252 29.8092 61.9655 30.0335C62.2218 30.2418 62.6544 30.3459 63.2632 30.3459H64.7531V32.9653H62.6624Z" fill="#0C122A"/>
<path d="M71.5586 33.2536C70.4052 33.2536 69.3638 32.9893 68.4346 32.4606C67.5215 31.9319 66.7925 31.203 66.2478 30.2738C65.7192 29.3286 65.4548 28.2392 65.4548 27.0057C65.4548 25.7721 65.7272 24.6907 66.2719 23.7615C66.8166 22.8163 67.5455 22.0794 68.4587 21.5507C69.3879 21.022 70.4292 20.7577 71.5827 20.7577C72.7201 20.7577 73.7454 21.022 74.6586 21.5507C75.5878 22.0794 76.3167 22.8163 76.8454 23.7615C77.3901 24.6907 77.6624 25.7721 77.6624 27.0057C77.6624 28.2392 77.3901 29.3286 76.8454 30.2738C76.3167 31.203 75.5878 31.9319 74.6586 32.4606C73.7294 32.9893 72.6961 33.2536 71.5586 33.2536ZM71.5586 30.5862C72.3597 30.5862 73.0565 30.2898 73.6493 29.6971C74.2421 29.0883 74.5384 28.1912 74.5384 27.0057C74.5384 25.8201 74.2421 24.931 73.6493 24.3382C73.0565 23.7295 72.3677 23.4251 71.5827 23.4251C70.7656 23.4251 70.0607 23.7295 69.468 24.3382C68.8912 24.931 68.6029 25.8201 68.6029 27.0057C68.6029 28.1912 68.8912 29.0883 69.468 29.6971C70.0607 30.2898 70.7576 30.5862 71.5586 30.5862Z" fill="#0C122A"/>
<path d="M90.8662 33.2056C89.945 33.2056 89.1106 33.0454 88.363 32.725C87.6154 32.3912 87.0146 31.8839 86.5607 31.203C86.1068 30.5222 85.8665 29.6677 85.8398 28.6398H88.363C88.3763 29.3206 88.5966 29.8947 89.0238 30.3619C89.4644 30.8159 90.0785 31.0428 90.8662 31.0428C91.6138 31.0428 92.1879 30.8359 92.5884 30.422C92.9889 30.0082 93.1891 29.4875 93.1891 28.86C93.1891 28.1258 92.9221 27.5717 92.3881 27.1979C91.8674 26.8108 91.1933 26.6172 90.3655 26.6172H89.3242V24.5145H90.3856C91.0664 24.5145 91.6338 24.3543 92.0877 24.0339C92.5416 23.7135 92.7686 23.2395 92.7686 22.6121C92.7686 22.0914 92.595 21.6775 92.2479 21.3705C91.9142 21.0501 91.4469 20.8899 90.8461 20.8899C90.192 20.8899 89.678 21.0834 89.3042 21.4706C88.9437 21.8578 88.7435 22.3317 88.7034 22.8924H86.2002C86.2536 21.5974 86.7009 20.5761 87.5419 19.8285C88.3963 19.0809 89.4978 18.7071 90.8461 18.7071C91.8074 18.7071 92.6151 18.8806 93.2692 19.2277C93.9368 19.5615 94.4374 20.0087 94.7711 20.5695C95.1183 21.1302 95.2918 21.751 95.2918 22.4318C95.2918 23.2195 95.0715 23.887 94.631 24.4344C94.2038 24.9684 93.6697 25.3289 93.0289 25.5158C93.8166 25.676 94.4574 26.0631 94.9514 26.6772C95.4453 27.278 95.6923 28.039 95.6923 28.9602C95.6923 29.7345 95.5054 30.4421 95.1316 31.0829C94.7578 31.7237 94.2104 32.2377 93.4895 32.6248C92.7819 33.012 91.9075 33.2056 90.8662 33.2056Z" fill="#0C122A"/>
<path d="M102.375 33.2056C101.32 33.2056 100.432 33.012 99.7115 32.6248C98.9906 32.2377 98.4099 31.717 97.9693 31.0628C97.5287 30.4087 97.2083 29.6811 97.0081 28.8801C96.8212 28.079 96.7277 27.258 96.7277 26.4169C96.7277 24.8549 96.948 23.4999 97.3886 22.3517C97.8291 21.1902 98.4633 20.2958 99.291 19.6683C100.119 19.0275 101.12 18.7071 102.295 18.7071C103.256 18.7071 104.07 18.9007 104.738 19.2878C105.419 19.6616 105.946 20.1556 106.32 20.7697C106.694 21.3838 106.914 22.0447 106.981 22.7522H104.598C104.478 22.1381 104.217 21.6642 103.817 21.3304C103.416 20.9967 102.902 20.8298 102.275 20.8298C101.38 20.8298 100.659 21.2436 100.112 22.0714C99.5647 22.8857 99.271 24.134 99.2309 25.8161C99.5513 25.2688 100.032 24.8149 100.673 24.4544C101.314 24.094 102.028 23.9137 102.815 23.9137C103.59 23.9137 104.317 24.1006 104.998 24.4744C105.679 24.8482 106.226 25.3756 106.64 26.0565C107.068 26.7373 107.281 27.5383 107.281 28.4595C107.281 29.3006 107.074 30.0816 106.66 30.8025C106.26 31.5234 105.686 32.1042 104.938 32.5447C104.204 32.9853 103.349 33.2056 102.375 33.2056ZM102.235 31.0028C102.982 31.0028 103.596 30.7758 104.077 30.3219C104.571 29.8546 104.818 29.2672 104.818 28.5597C104.818 27.812 104.571 27.2113 104.077 26.7574C103.583 26.3034 102.956 26.0765 102.195 26.0765C101.701 26.0765 101.253 26.19 100.853 26.4169C100.466 26.6305 100.159 26.9242 99.9318 27.298C99.7048 27.6585 99.5914 28.0657 99.5914 28.5196C99.5914 29.2405 99.8383 29.8346 100.332 30.3019C100.84 30.7691 101.474 31.0028 102.235 31.0028Z" fill="#0C122A"/>
<path d="M113.334 33.2056C112.306 33.2056 111.418 33.0254 110.671 32.6649C109.936 32.3044 109.356 31.8105 108.928 31.183C108.515 30.5422 108.274 29.8213 108.208 29.0202H110.711C110.831 29.5943 111.125 30.0749 111.592 30.4621C112.059 30.8359 112.64 31.0228 113.334 31.0228C114.082 31.0228 114.689 30.7491 115.156 30.2017C115.637 29.6544 115.877 28.9735 115.877 28.1591C115.877 27.3181 115.637 26.6505 115.156 26.1566C114.689 25.6626 114.095 25.4156 113.374 25.4156C112.773 25.4156 112.253 25.5625 111.812 25.8562C111.372 26.1499 111.058 26.517 110.871 26.9576H108.408L109.609 18.9474H117.379V21.1902H111.532L110.891 24.4344C111.185 24.114 111.585 23.8536 112.092 23.6534C112.6 23.4398 113.167 23.333 113.795 23.333C114.796 23.333 115.63 23.5599 116.298 24.0138C116.965 24.4544 117.473 25.0418 117.82 25.7761C118.167 26.497 118.34 27.2847 118.34 28.1391C118.34 29.1137 118.127 29.9815 117.7 30.7424C117.286 31.5034 116.698 32.1042 115.937 32.5447C115.19 32.9853 114.322 33.2056 113.334 33.2056Z" fill="#0C122A"/>
<path d="M82.2382 49.6098L77.8376 36.0931C77.7761 35.8891 77.7715 35.6718 77.8245 35.4653C77.8775 35.2588 77.9859 35.0711 78.1378 34.923C78.2897 34.7749 78.4792 34.6722 78.6852 34.6261C78.8913 34.5801 79.106 34.5925 79.3055 34.6621L92.6665 39.2446C92.915 39.3287 93.1275 39.4964 93.2684 39.7198C93.4093 39.9432 93.4701 40.2087 93.4406 40.4719C93.4111 40.7352 93.2931 40.9802 93.1063 41.1661C92.9196 41.3519 92.6753 41.4674 92.4145 41.4931L86.0706 42.135C85.8127 42.1598 85.5099 42.2824 85.3234 42.4642C85.137 42.646 84.8842 43.5141 84.8504 43.7737L84.4625 49.444C84.42 49.7003 84.2936 49.9347 84.1037 50.1098C83.9137 50.2848 83.6711 50.3903 83.4147 50.4095C83.1584 50.4286 82.9031 50.3602 82.6898 50.2152C82.4764 50.0702 82.3174 49.857 82.2382 49.6098Z" fill="#6948EB"/>
<path d="M125.564 20.8793C126.584 20.6527 127.601 21.3009 127.746 22.3363C128.441 27.3171 127.705 32.4118 125.608 36.9954C123.246 42.154 119.29 46.38 114.346 49.0245C109.401 51.6689 103.742 52.5858 98.2376 51.6342C93.3403 50.7876 88.8058 48.5039 85.1797 45.0821C84.4279 44.3727 84.4723 43.186 85.2204 42.4728V42.4728C85.9893 41.7398 87.2051 41.7878 87.9892 42.5045C91.0369 45.2902 94.8053 47.1514 98.8663 47.8534C103.559 48.6646 108.383 47.883 112.598 45.6286C116.814 43.3741 120.186 39.7715 122.199 35.3737C123.953 31.5419 124.59 27.2911 124.055 23.1239C123.924 22.0987 124.555 21.1033 125.564 20.8793V20.8793Z" fill="#6B4BEB"/>
<path d="M126.12 26C127.158 26 128.007 25.1569 127.933 24.121C127.555 18.7931 125.574 13.6962 122.238 9.53801C118.511 4.89314 113.324 1.70556 107.555 0.515975C101.786 -0.67361 95.7915 0.208039 90.5877 3.01138C85.9249 5.52323 82.1543 9.43935 79.7753 14.2042C79.3146 15.127 79.7653 16.2237 80.7127 16.6311V16.6311C81.679 17.0467 82.7915 16.5869 83.275 15.6528C85.3098 11.7223 88.4649 8.49195 92.3446 6.40196C96.7809 4.01209 101.892 3.26047 106.809 4.27461C111.727 5.28874 116.15 8.00618 119.327 11.966C122.113 15.4389 123.79 19.6799 124.161 24.1216C124.247 25.1566 125.081 26 126.12 26V26Z" fill="url(#paint0_linear_9411_28778)"/>
<defs>
<linearGradient id="paint0_linear_9411_28778" x1="122.5" y1="15" x2="83.5" y2="20.5" gradientUnits="userSpaceOnUse">
<stop stop-color="#6B4BEB"/>
<stop offset="0.300236" stop-color="#6B4BEB" stop-opacity="0.668642"/>
<stop offset="0.550052" stop-color="#6B4BEB" stop-opacity="0.449948"/>
<stop offset="1" stop-color="#6B4BEB" stop-opacity="0"/>
</linearGradient>
</defs>
</svg>
