<svg width="35" height="35" viewBox="0 0 35 35" fill="none" xmlns="http://www.w3.org/2000/svg">
<path fill-rule="evenodd" clip-rule="evenodd" d="M9.01936 14.9354C9 15.5254 9 16.2071 9 17V18C9 20.8284 9 22.2426 9.87868 23.1213C10.7574 24 12.1716 24 15 24H20C22.8284 24 24.2426 24 25.1213 23.1213C26 22.2426 26 20.8284 26 18V17C26 16.2071 26 15.5254 25.9806 14.9354L18.4587 19.044C17.8612 19.3704 17.1388 19.3704 16.5413 19.044L9.01936 14.9354ZM9.30325 12.8323C9.36316 12.8514 9.42212 12.8765 9.47937 12.9078L17.5 17.2888L25.5206 12.9078C25.5779 12.8765 25.6368 12.8514 25.6968 12.8323C25.5677 12.4511 25.3837 12.141 25.1213 11.8787C24.2426 11 22.8284 11 20 11H15C12.1716 11 10.7574 11 9.87868 11.8787C9.61634 12.141 9.43233 12.4511 9.30325 12.8323Z" fill="white"/>
<rect x="0.5" y="0.5" width="34" height="34" rx="17" stroke="#454545"/>
</svg>
