<svg width="12" height="14" viewBox="0 0 12 14" fill="none" xmlns="http://www.w3.org/2000/svg">
<path d="M11.25 13.1833H11.35V13.0833V12.5C11.35 11.3905 10.9093 10.3265 10.1247 9.54194C9.3402 8.75741 8.27616 8.31667 7.16667 8.31667H4.83333C3.72384 8.31667 2.6598 8.75741 1.87527 9.54194C1.09074 10.3265 0.65 11.3905 0.65 12.5V13.0833V13.1833H0.75H1.91667H2.01667V13.0833V12.5C2.01667 11.753 2.31342 11.0365 2.84165 10.5083C3.36988 9.98009 4.08631 9.68333 4.83333 9.68333H7.16667C7.91369 9.68333 8.63012 9.98009 9.15835 10.5083C9.68658 11.0365 9.98333 11.753 9.98333 12.5V13.0833V13.1833H10.0833H11.25ZM6 0.9C5.40336 0.9 4.82012 1.07692 4.32403 1.4084C3.82794 1.73988 3.44129 2.21101 3.21296 2.76224C2.98464 3.31346 2.9249 3.92001 3.0413 4.50519C3.1577 5.09036 3.44501 5.62788 3.86689 6.04977C4.28878 6.47166 4.8263 6.75897 5.41148 6.87537C5.99665 6.99177 6.6032 6.93203 7.15443 6.7037C7.70565 6.47538 8.17679 6.08873 8.50827 5.59264C8.83974 5.09655 9.01667 4.51331 9.01667 3.91667C9.01667 3.1166 8.69884 2.3493 8.13311 1.78356C7.56737 1.21783 6.80007 0.9 6 0.9ZM6 5.56667C5.67366 5.56667 5.35465 5.4699 5.08331 5.28859C4.81197 5.10729 4.60048 4.84959 4.4756 4.54809C4.35071 4.2466 4.31804 3.91484 4.3817 3.59477C4.44537 3.2747 4.60252 2.9807 4.83327 2.74994C5.06403 2.51918 5.35803 2.36204 5.6781 2.29837C5.99817 2.23471 6.32993 2.26738 6.63143 2.39227C6.93293 2.51715 7.19062 2.72863 7.37192 2.99998C7.55323 3.27132 7.65 3.59033 7.65 3.91667C7.65 4.35427 7.47616 4.77396 7.16673 5.08339C6.85729 5.39283 6.43761 5.56667 6 5.56667Z" fill="#1D2922" stroke="#1D2922" stroke-width="0.2"/>
</svg>
