<svg width="35" height="35" viewBox="0 0 35 35" fill="none" xmlns="http://www.w3.org/2000/svg">
<path d="M11.6796 9.32038L12.2929 8.70711C12.6834 8.31658 13.3166 8.31658 13.7071 8.70711L16.2929 11.2929C16.6834 11.6834 16.6834 12.3166 16.2929 12.7071L14.5005 14.4995C14.2016 14.7984 14.1275 15.255 14.3165 15.6331C15.4093 17.8186 17.1814 19.5907 19.3669 20.6835C19.745 20.8725 20.2016 20.7984 20.5005 20.4995L22.2929 18.7071C22.6834 18.3166 23.3166 18.3166 23.7071 18.7071L26.2929 21.2929C26.6834 21.6834 26.6834 22.3166 26.2929 22.7071L25.6796 23.3204C23.5683 25.4317 20.2257 25.6693 17.837 23.8777L16.6286 22.9714C14.885 21.6638 13.3362 20.115 12.0286 18.3714L11.1223 17.163C9.33072 14.7743 9.56827 11.4317 11.6796 9.32038Z" fill="white"/>
<rect x="0.5" y="0.5" width="34" height="34" rx="17" stroke="#454545"/>
</svg>
