<svg width="30" height="30" viewBox="0 0 30 30" fill="none" xmlns="http://www.w3.org/2000/svg">
<path d="M10.0109 7.98917L10.5366 7.46351C10.8713 7.12878 11.414 7.12878 11.7487 7.46351L13.9651 9.6799C14.2999 10.0146 14.2999 10.5573 13.9651 10.8921L12.4288 12.4284C12.1726 12.6846 12.1091 13.076 12.2711 13.4C13.2078 15.2733 14.7267 16.7923 16.6 17.729C16.9241 17.891 17.3154 17.8275 17.5716 17.5713L19.108 16.0349C19.4427 15.7002 19.9854 15.7002 20.3202 16.0349L22.5366 18.2513C22.8713 18.5861 22.8713 19.1288 22.5366 19.4635L22.0109 19.9892C20.2012 21.7989 17.3361 22.0025 15.2886 20.4669L14.2529 19.6901C12.7584 18.5692 11.4308 17.2417 10.31 15.7472L9.53316 14.7114C7.99755 12.664 8.20117 9.7989 10.0109 7.98917Z" fill="#282828"/>
<rect x="0.428571" y="0.428571" width="29.1429" height="29.1429" rx="14.5714" stroke="#F7F7FA" stroke-width="0.857143"/>
</svg>
