<svg width="14" height="14" viewBox="0 0 14 14" fill="none" xmlns="http://www.w3.org/2000/svg">
<path fill-rule="evenodd" clip-rule="evenodd" d="M13.2012 7.77519C13.4581 7.77519 13.6663 7.98343 13.6663 8.2403V8.27529C13.6664 9.41499 13.6664 10.3177 13.5714 11.0242C13.4736 11.7513 13.2677 12.3398 12.8036 12.8039C12.3395 13.268 11.751 13.4739 11.0239 13.5717C10.3174 13.6667 9.41467 13.6667 8.27497 13.6667H8.23998C7.98311 13.6667 7.77487 13.4584 7.77487 13.2015C7.77487 12.9447 7.98311 12.7364 8.23998 12.7364C9.42251 12.7364 10.2626 12.7354 10.8999 12.6498C11.5239 12.5659 11.8833 12.4086 12.1458 12.1461C12.4082 11.8836 12.5656 11.5242 12.6494 10.9002C12.7351 10.2629 12.7361 9.42283 12.7361 8.2403C12.7361 7.98343 12.9443 7.77519 13.2012 7.77519Z" fill="#8F78FF"/>
<path fill-rule="evenodd" clip-rule="evenodd" d="M0.798125 7.77519C1.055 7.77519 1.26324 7.98343 1.26324 8.2403C1.26324 9.42283 1.26423 10.2629 1.34991 10.9002C1.4338 11.5242 1.59111 11.8836 1.85357 12.1461C2.11602 12.4086 2.47549 12.5659 3.09943 12.6498C3.73674 12.7354 4.57684 12.7364 5.75936 12.7364C6.01624 12.7364 6.22448 12.9447 6.22448 13.2015C6.22448 13.4584 6.01624 13.6667 5.75936 13.6667H5.72438C4.58468 13.6667 3.68196 13.6667 2.97547 13.5717C2.24839 13.4739 1.6599 13.268 1.19579 12.8039C0.731693 12.3398 0.525729 11.7513 0.427975 11.0242C0.33299 10.3177 0.332998 9.41499 0.333008 8.27529C0.333008 8.26366 0.333008 8.25199 0.333008 8.2403C0.333008 7.98343 0.541248 7.77519 0.798125 7.77519Z" fill="#8F78FF"/>
<path fill-rule="evenodd" clip-rule="evenodd" d="M5.72438 0.333328L5.75937 0.333329C6.01624 0.333329 6.22448 0.541568 6.22448 0.798445C6.22448 1.05532 6.01624 1.26356 5.75937 1.26356C4.57684 1.26356 3.73674 1.26455 3.09943 1.35023C2.47549 1.43412 2.11602 1.59143 1.85357 1.85389C1.59111 2.11634 1.4338 2.47581 1.34991 3.09975C1.26423 3.73706 1.26324 4.57716 1.26324 5.75969C1.26324 6.01656 1.055 6.2248 0.798125 6.2248C0.541248 6.2248 0.333008 6.01656 0.333008 5.75969L0.333008 5.7247C0.332998 4.585 0.33299 3.68228 0.427975 2.97579C0.525729 2.24871 0.731693 1.66022 1.19579 1.19612C1.6599 0.732014 2.24839 0.52605 2.97547 0.428296C3.68196 0.333311 4.58468 0.333319 5.72438 0.333328Z" fill="#8F78FF"/>
<path fill-rule="evenodd" clip-rule="evenodd" d="M10.8999 1.35023C10.2626 1.26455 9.42251 1.26356 8.23998 1.26356C7.98311 1.26356 7.77487 1.05532 7.77487 0.798445C7.77487 0.541568 7.98311 0.333329 8.23998 0.333329C8.25167 0.333329 8.26333 0.333329 8.27497 0.333328C9.41467 0.333319 10.3174 0.333311 11.0239 0.428296C11.751 0.52605 12.3395 0.732014 12.8036 1.19612C13.2677 1.66022 13.4736 2.24871 13.5714 2.97579C13.6664 3.68229 13.6664 4.585 13.6663 5.7247V5.75969C13.6663 6.01656 13.4581 6.2248 13.2012 6.2248C12.9443 6.2248 12.7361 6.01656 12.7361 5.75969C12.7361 4.57716 12.7351 3.73706 12.6494 3.09975C12.5656 2.47582 12.4082 2.11634 12.1458 1.85389C11.8833 1.59143 11.5239 1.43412 10.8999 1.35023Z" fill="#8F78FF"/>
<path fill-rule="evenodd" clip-rule="evenodd" d="M2.58335 2.58367C2.03843 3.12859 2.03843 4.00562 2.03843 5.75969V8.24031C2.03843 9.99437 2.03843 10.8714 2.58335 11.4163C3.12827 11.9612 4.0053 11.9612 5.75937 11.9612H8.23999C9.99405 11.9612 10.8711 11.9612 11.416 11.4163C11.9609 10.8714 11.9609 9.99437 11.9609 8.24031V5.75969C11.9609 4.00562 11.9609 3.12859 11.416 2.58367C10.8711 2.03876 9.99405 2.03875 8.23999 2.03875H5.75937C4.0053 2.03875 3.12827 2.03876 2.58335 2.58367ZM5.04482 8.69563C5.17866 8.51506 5.43355 8.47718 5.61412 8.61103C6.00934 8.90398 6.4864 9.07364 6.99967 9.07364C7.51295 9.07364 7.99001 8.90398 8.38523 8.61103C8.5658 8.47718 8.82069 8.51506 8.95453 8.69563C9.08838 8.8762 9.0505 9.13109 8.86993 9.26493C8.34226 9.65606 7.69695 9.88759 6.99967 9.88759C6.3024 9.88759 5.65708 9.65606 5.12942 9.26493C4.94885 9.13109 4.91097 8.8762 5.04482 8.69563ZM9.17022 5.95348C9.17022 6.40302 8.92727 6.76744 8.62758 6.76744C8.32789 6.76744 8.08495 6.40302 8.08495 5.95348C8.08495 5.50395 8.32789 5.13953 8.62758 5.13953C8.92727 5.13953 9.17022 5.50395 9.17022 5.95348ZM5.37177 6.76744C5.67146 6.76744 5.9144 6.40302 5.9144 5.95348C5.9144 5.50395 5.67146 5.13953 5.37177 5.13953C5.07208 5.13953 4.82913 5.50395 4.82913 5.95348C4.82913 6.40302 5.07208 6.76744 5.37177 6.76744Z" fill="#8F78FF"/>
</svg>
