<svg width="35" height="35" viewBox="0 0 35 35" fill="none" xmlns="http://www.w3.org/2000/svg">
<path fill-rule="evenodd" clip-rule="evenodd" d="M17.5 26C22.1944 26 26 22.1944 26 17.5C26 12.8056 22.1944 9 17.5 9C12.8056 9 9 12.8056 9 17.5C9 22.1944 12.8056 26 17.5 26ZM18.5 12.3056C18.5 11.7533 18.0523 11.3056 17.5 11.3056C16.9477 11.3056 16.5 11.7533 16.5 12.3056V17.25C16.5 17.9404 17.0596 18.5 17.75 18.5H20.8056C21.3578 18.5 21.8056 18.0523 21.8056 17.5C21.8056 16.9477 21.3578 16.5 20.8056 16.5H18.5V12.3056Z" fill="white"/>
<rect x="0.5" y="0.5" width="34" height="34" rx="17" stroke="#454545"/>
</svg>
