<svg width="30" height="30" viewBox="0 0 30 30" fill="none" xmlns="http://www.w3.org/2000/svg">
<path fill-rule="evenodd" clip-rule="evenodd" d="M15.0001 22.2863C19.0239 22.2863 22.2858 19.0243 22.2858 15.0006C22.2858 10.9768 19.0239 7.71484 15.0001 7.71484C10.9763 7.71484 7.71436 10.9768 7.71436 15.0006C7.71436 19.0243 10.9763 22.2863 15.0001 22.2863ZM15.8571 10.5479C15.8571 10.0745 15.4734 9.69071 15 9.69071C14.5266 9.69071 14.1429 10.0745 14.1429 10.5479V14.7859C14.1429 15.3777 14.6226 15.8574 15.2143 15.8574H17.8333C18.3067 15.8574 18.6905 15.4736 18.6905 15.0002C18.6905 14.5268 18.3067 14.1431 17.8333 14.1431H15.8571V10.5479Z" fill="#282828"/>
<rect x="0.428571" y="0.428571" width="29.1429" height="29.1429" rx="14.5714" stroke="#F7F7FA" stroke-width="0.857143"/>
</svg>
