<svg width="35" height="35" viewBox="0 0 35 35" fill="none" xmlns="http://www.w3.org/2000/svg">
<rect x="0.5" y="0.5" width="34" height="34" rx="17" stroke="#454545"/>
<path fill-rule="evenodd" clip-rule="evenodd" d="M22.1234 18.7864C21.8995 18.6748 20.7985 18.1357 20.5932 18.0613C20.3879 17.9869 20.2387 17.9497 20.0894 18.1729C19.9401 18.396 19.5109 18.898 19.3803 19.0467C19.2496 19.1954 19.119 19.2141 18.8951 19.1025C18.6711 18.991 17.9496 18.7556 17.0942 17.9963C16.4285 17.4054 15.9791 16.6755 15.8484 16.4524C15.7178 16.2293 15.8345 16.1087 15.9467 15.9975C16.0474 15.8977 16.1706 15.7373 16.2826 15.6071C16.3945 15.477 16.4318 15.384 16.5065 15.2353C16.5811 15.0865 16.5438 14.9564 16.4878 14.8448C16.4318 14.7333 15.984 13.6363 15.7974 13.1901C15.6156 12.7555 15.431 12.8143 15.2935 12.8075C15.1631 12.801 15.0136 12.7996 14.8643 12.7996C14.715 12.7996 14.4725 12.8554 14.2672 13.0785C14.0619 13.3016 13.4834 13.8408 13.4834 14.9378C13.4834 16.0347 14.2858 17.0945 14.3978 17.2433C14.5098 17.392 15.9769 19.6431 18.2233 20.6085C18.7576 20.8381 19.1747 20.9752 19.4999 21.078C20.0364 21.2475 20.5246 21.2236 20.9104 21.1662C21.3407 21.1023 22.2354 20.6271 22.422 20.1065C22.6086 19.5859 22.6086 19.1397 22.5526 19.0467C22.4966 18.9538 22.3473 18.898 22.1234 18.7864ZM18.0372 24.3379H18.0342C16.6975 24.3374 15.3865 23.98 14.2428 23.3046L13.9708 23.1439L11.1514 23.8799L11.904 21.1442L11.7268 20.8638C10.9811 19.6834 10.5873 18.3192 10.5879 16.9184C10.5895 12.8309 13.9312 9.5054 18.0402 9.5054C20.0298 9.50617 21.9001 10.2783 23.3066 11.6796C24.713 13.0809 25.4871 14.9435 25.4863 16.9244C25.4846 21.0122 22.143 24.3379 18.0372 24.3379ZM24.3774 10.6158C22.6853 8.92986 20.4351 8.00094 18.0376 8C13.0977 8 9.07714 12.001 9.07516 16.9189C9.07452 18.4909 9.48719 20.0254 10.2715 21.378L9 26L13.7511 24.7597C15.0601 25.4703 16.534 25.8447 18.034 25.8454H18.0376H18.0377C22.9771 25.8454 26.998 21.8439 27 16.926C27.0009 14.5427 26.0696 12.3017 24.3774 10.6158Z" fill="#FEFEFE"/>
</svg>
